# xmcd
#
# Track frame offsets:
#	150
#	13508
#	29592
#	42086
#	56712
#	70609
#	82858
#	96647
#	110517
#	125386
#
# Disc length: 1828 seconds
#
# Revision: 1
# Processed by: cddbd v1.5.2PL0 Copyright (c) Steve Scherf et al.
# Submitted via: audiograbber 1.83.01
#
DISCID=7e07220a
DTITLE=Jean Shepard - The Tennessee Waltz
DYEAR=2003
DGENRE=Country
TTITLE0=Phone Call Away
TTITLE1=Secret Love
TTITLE2=Beautiful Lies
TTITLE3=Together Again
TTITLE4=Farewell Party
TTITLE5=Dear Hearts
TTITLE6=Gone, Gone, Gone
TTITLE7=If Teardrops Were Pennies
TTITLE8=Waltz Of The Angels
TTITLE9=Tennessee Waltz
EXTD=
EXTT0=
EXTT1=
EXTT2=
EXTT3=
EXTT4=
EXTT5=
EXTT6=
EXTT7=
EXTT8=
EXTT9=
PLAYORDER=
